<svg width="22" height="22" viewBox="0 0 22 22" fill="none" xmlns="http://www.w3.org/2000/svg">
<path d="M14.1757 12.9017C13.4715 12.9017 12.8984 13.4746 12.8984 14.1788C12.8984 14.8832 13.4715 15.4562 14.1757 15.4562C14.8801 15.4562 15.4528 14.8832 15.4528 14.1788C15.4526 13.4746 14.8799 12.9017 14.1757 12.9017Z" fill="#000"/>
<path d="M7.81019 6.53654C7.10582 6.53654 6.53276 7.1096 6.53276 7.81398C6.53293 8.51801 7.10599 9.0909 7.81019 9.0909C8.5144 9.0909 9.08711 8.51801 9.08711 7.81398C9.08711 7.1096 8.5144 6.53654 7.81019 6.53654Z" fill="#000"/>
<path d="M11.0005 0C4.93459 0 0 4.93459 0 11.0005C0 17.0661 4.93459 22.001 11.0005 22.001C17.0658 22.001 22 17.0661 22 11.0005C22 4.93459 17.0658 0 11.0005 0ZM7.81019 5.16045C9.27292 5.16045 10.4634 6.35056 10.4634 7.81398C10.4634 9.2767 9.27292 10.4672 7.81019 10.4672C6.34695 10.4672 5.15666 9.2767 5.15666 7.81398C5.15666 6.35056 6.34713 5.16045 7.81019 5.16045ZM7.00355 15.97C6.86948 16.1044 6.69295 16.1718 6.51712 16.1718C6.34111 16.1718 6.16493 16.1044 6.03052 15.97C5.76186 15.7013 5.76186 15.2655 6.03052 14.9971L14.9965 6.03086C15.2649 5.76221 15.7007 5.76221 15.9695 6.03086C16.2381 6.29951 16.2381 6.73541 15.9695 7.00389L7.00355 15.97ZM14.1757 16.8322C12.7126 16.8322 11.5222 15.6419 11.5222 14.1786C11.5222 12.7159 12.7126 11.5254 14.1757 11.5254C15.6386 11.5254 16.8289 12.7159 16.8289 14.1786C16.8287 15.6419 15.6384 16.8322 14.1757 16.8322Z" fill="#000"/>
<path fill-rule="evenodd" clip-rule="evenodd" d="M7.81019 5.16045C9.27292 5.16045 10.4634 6.35056 10.4634 7.81398C10.4634 9.2767 9.27292 10.4672 7.81019 10.4672C6.34695 10.4672 5.15666 9.2767 5.15666 7.81398C5.15666 6.35056 6.34713 5.16045 7.81019 5.16045ZM6.53276 7.81398C6.53276 7.1096 7.10582 6.53654 7.81019 6.53654C8.5144 6.53654 9.08711 7.1096 9.08711 7.81398C9.08711 8.51801 8.5144 9.0909 7.81019 9.0909C7.10599 9.0909 6.53293 8.51801 6.53276 7.81398Z" fill="#fff"/>
<path d="M7.00355 15.97C6.86948 16.1044 6.69295 16.1718 6.51712 16.1718C6.34111 16.1718 6.16493 16.1044 6.03052 15.97C5.76186 15.7013 5.76186 15.2655 6.03052 14.9971L14.9965 6.03086C15.2649 5.76221 15.7007 5.76221 15.9695 6.03086C16.2381 6.29951 16.2381 6.73541 15.9695 7.00389L7.00355 15.97Z" fill="#fff"/>
<path fill-rule="evenodd" clip-rule="evenodd" d="M14.1757 16.8322C12.7126 16.8322 11.5222 15.6419 11.5222 14.1786C11.5222 12.7159 12.7126 11.5254 14.1757 11.5254C15.6386 11.5254 16.8289 12.7159 16.8289 14.1786C16.8287 15.6419 15.6384 16.8322 14.1757 16.8322ZM12.8984 14.1788C12.8984 13.4746 13.4715 12.9017 14.1757 12.9017C14.8799 12.9017 15.4526 13.4746 15.4528 14.1788C15.4528 14.8832 14.8801 15.4562 14.1757 15.4562C13.4715 15.4562 12.8984 14.8832 12.8984 14.1788Z" fill="#fff"/>
</svg>
